<?xml version="1.0" encoding="UTF-8"?>
<svg id="Layer_1" data-name="Layer 1" xmlns="http://www.w3.org/2000/svg" version="1.1" viewBox="0 0 1122 1122">
  <defs>
    <style>
      .cls-1 {
        fill: #070b0f;
        stroke-width: 0px;
      }
    </style>
  </defs>
  <g id="Object">
    <g>
      <rect class="cls-1" x="77.9" y="313.6" width="20.9" height="474.9"/>
      <rect class="cls-1" x="106.6" y="313.6" width="13.1" height="474.9"/>
      <rect class="cls-1" x="997.2" y="313.6" width="20.9" height="474.9"/>
      <rect class="cls-1" x="1024.4" y="313.6" width="8.2" height="474.9"/>
      <rect class="cls-1" x="1039" y="313.6" width="5.1" height="474.9"/>
      <rect class="cls-1" x="135.4" y="313.6" width="11.5" height="407.2"/>
      <rect class="cls-1" x="156.7" y="313.6" width="26.8" height="407.2"/>
      <rect class="cls-1" x="191.9" y="313.6" width="8.5" height="407.2"/>
      <rect class="cls-1" x="208.3" y="313.6" width="5.9" height="407.2"/>
      <rect class="cls-1" x="283" y="313.6" width="4" height="407.2"/>
      <rect class="cls-1" x="293.7" y="313.6" width="7.3" height="407.2"/>
      <rect class="cls-1" x="230.8" y="313.6" width="9.1" height="407.2"/>
      <rect class="cls-1" x="257.7" y="313.6" width="20.6" height="407.2"/>
      <rect class="cls-1" x="312.9" y="313.6" width="16" height="407.2"/>
      <rect class="cls-1" x="342.5" y="313.6" width="37.1" height="407.2"/>
      <rect class="cls-1" x="391.3" y="313.6" width="11.8" height="407.2"/>
      <rect class="cls-1" x="414" y="313.6" width="8.1" height="407.2"/>
      <rect class="cls-1" x="485.8" y="313.6" width="3" height="407.2"/>
      <rect class="cls-1" x="493.9" y="313.6" width="5.5" height="407.2"/>
      <rect class="cls-1" x="428.2" y="313.6" width="12.7" height="407.2"/>
      <rect class="cls-1" x="888.3" y="313.6" width="37.1" height="407.2"/>
      <rect class="cls-1" x="937.1" y="313.6" width="11.8" height="407.2"/>
      <rect class="cls-1" x="959.8" y="313.6" width="8.1" height="407.2"/>
      <rect class="cls-1" x="974" y="313.6" width="12.7" height="407.2"/>
      <rect class="cls-1" x="457.7" y="313.6" width="15.5" height="407.2"/>
      <rect class="cls-1" x="546.2" y="313.6" width="5.8" height="407.2"/>
      <rect class="cls-1" x="613" y="313.6" width="4" height="407.2"/>
      <rect class="cls-1" x="637.8" y="313.6" width="9.3" height="407.2"/>
      <rect class="cls-1" x="561.8" y="313.6" width="10.5" height="407.2"/>
      <rect class="cls-1" x="509.7" y="313.6" width="29.7" height="407.2"/>
      <rect class="cls-1" x="589.5" y="313.6" width="15.3" height="407.2"/>
      <rect class="cls-1" x="655.7" y="313.6" width="17" height="407.2"/>
      <rect class="cls-1" x="688.5" y="313.6" width="11.7" height="407.2"/>
      <rect class="cls-1" x="792.2" y="313.6" width="4.4" height="407.2"/>
      <rect class="cls-1" x="809.8" y="313.6" width="7.9" height="407.2"/>
      <rect class="cls-1" x="826.8" y="313.6" width="4.4" height="407.2"/>
      <rect class="cls-1" x="844.4" y="313.6" width="3.3" height="407.2"/>
      <rect class="cls-1" x="857.5" y="313.6" width="18.3" height="407.2"/>
      <rect class="cls-1" x="709" y="313.6" width="18.3" height="407.2"/>
      <rect class="cls-1" x="751.6" y="313.6" width="22.4" height="407.2"/>
    </g>
  </g>
</svg>