<?xml version="1.0" encoding="utf-8"?>
<!-- Generator: Adobe Illustrator 28.0.0, SVG Export Plug-In . SVG Version: 6.00 Build 0)  -->
<svg version="1.1" id="Layer_1" xmlns="http://www.w3.org/2000/svg" xmlns:xlink="http://www.w3.org/1999/xlink" x="0px" y="0px"
	 viewBox="0 0 128 160" style="enable-background:new 0 0 128 160;" xml:space="preserve">
<path d="M64,20c-21.7,0-40.8,8-51.9,20H12v0.1C5.7,47,2,55.2,2,64s3.7,17,10,23.9V88h0.1c11.1,12,30.2,20,51.9,20
	c34.2,0,62-19.7,62-44S98.2,20,64,20z M121.9,62h-16c-0.3-6.5-1.9-12.5-4.6-18h12.8C118.7,49.3,121.5,55.5,121.9,62L121.9,62z
	 M13.8,84c-4.5-5.3-7.3-11.5-7.7-18h16c0.3,6.5,1.9,12.6,4.6,18H13.8L13.8,84z M26.6,44c-2.7,5.5-4.3,11.5-4.6,18h-16
	c0.5-6.5,3.2-12.7,7.7-18H26.6z M62,24.3V40H49.7C52.7,31.5,57.1,25.5,62,24.3z M62,44v18H46c0.2-6.5,1-12.6,2.5-18H62z M62,66v18
	H48.5c-1.4-5.4-2.3-11.5-2.5-18H62z M62,88v15.7c-4.9-1.3-9.3-7.2-12.3-15.7H62z M66,103.7V88h12.3C75.3,96.5,70.9,102.4,66,103.7z
	 M66,84V66h16c-0.2,6.5-1,12.6-2.5,18C79.5,84,66,84,66,84z M66,62V44h13.5c1.4,5.4,2.3,11.5,2.5,18H66z M66,40V24.3
	c4.9,1.3,9.3,7.2,12.3,15.7H66z M75,25.7c7.8,2.5,14.6,7.6,19.4,14.3H82.5C80.6,34.1,78.1,29.2,75,25.7z M45.5,40H33.6
	c4.8-6.7,11.6-11.8,19.4-14.3C49.9,29.2,47.4,34.1,45.5,40z M44.3,44C43,49.4,42.2,55.5,42,62H26c0.3-6.5,2.1-12.7,5.1-18H44.3
	L44.3,44z M26,66h16c0.1,6.5,1,12.6,2.3,18H31.1C28.2,78.7,26.4,72.5,26,66L26,66z M45.5,88c1.9,5.9,4.5,10.8,7.5,14.3
	c-7.8-2.5-14.6-7.6-19.4-14.3H45.5z M82.5,88h11.8c-4.8,6.7-11.6,11.8-19.4,14.3C78.1,98.8,80.6,93.9,82.5,88z M83.7,84
	c1.3-5.4,2.2-11.5,2.3-18h16c-0.3,6.5-2.1,12.7-5.1,18H83.7L83.7,84z M86,62c-0.1-6.5-0.9-12.6-2.3-18h13.2c2.9,5.3,4.8,11.5,5.1,18
	H86L86,62z M110.4,40H99.2c-3.1-5-7.2-9.3-12-12.6C96.4,30.1,104.4,34.5,110.4,40L110.4,40z M40.8,27.4C36,30.7,32,35,28.8,40H17.6
	C23.6,34.5,31.6,30.1,40.8,27.4L40.8,27.4z M17.6,88h11.2c3.1,5,7.2,9.3,12,12.7C31.6,97.9,23.6,93.5,17.6,88L17.6,88z M99.2,88
	h11.2c-6,5.5-13.9,9.9-23.2,12.7C92,97.3,96,93,99.2,88L99.2,88z M114.2,84h-12.8c2.7-5.4,4.3-11.5,4.6-18h16
	C121.4,72.5,118.7,78.7,114.2,84L114.2,84z"/>
</svg>
