<?xml version="1.0" encoding="UTF-8"?>
<svg id="Layer_1" data-name="Layer 1" xmlns="http://www.w3.org/2000/svg" version="1.1" viewBox="0 0 512 512">
  <defs>
    <style>
      .cls-1 {
        fill: #fff;
        stroke-width: 0px;
      }
    </style>
  </defs>
  <path class="cls-1" d="M349.9,343.1c-49.9,49.9-131.1,49.9-181,0-49.9-49.9-49.9-131.1,0-181,13.2-13.2,29.3-23.2,47.8-29.8,5.8-2,12.3-.6,16.6,3.8,4.4,4.4,5.9,10.8,3.8,16.6-12.5,35.4-4,73.7,22.2,99.9,26.2,26.2,64.5,34.8,99.9,22.2,5.8-2.1,12.3-.6,16.6,3.8,4.4,4.3,5.8,10.8,3.8,16.6-6.5,18.5-16.6,34.6-29.8,47.8ZM191.5,184.8c-37.4,37.4-37.4,98.4,0,135.8,40,40,108.1,36.4,143-8.2-36,2.2-71.4-10.7-97.8-37.1-26.4-26.4-39.3-61.8-37.1-97.7-2.9,2.3-5.6,4.6-8.2,7.2Z"/>
</svg>