<?xml version="1.0" encoding="UTF-8"?>
<svg id="Layer_1" data-name="Layer 1" xmlns="http://www.w3.org/2000/svg" version="1.1" viewBox="0 0 512 512">
  <defs>
    <style>
      .cls-1 {
        fill: #fff;
        stroke-width: 0px;
      }
    </style>
  </defs>
  <path class="cls-1" d="M256,144c-61.8,0-112,50.2-112,112s50.2,112,112,112,112-50.2,112-112-50.2-112-112-112ZM256,336c-44.2,0-80-35.8-80-80s35.8-80,80-80,80,35.8,80,80-35.8,80-80,80ZM256,112c8.8,0,16-7.2,16-16v-32c0-8.8-7.2-16-16-16s-16,7.2-16,16v32c0,8.8,7.2,16,16,16ZM256,400c-8.8,0-16,7.2-16,16v32c0,8.8,7.2,16,16,16s16-7.2,16-16v-32c0-8.8-7.2-16-16-16ZM380.4,154.2l22.6-22.6c6.2-6.2,6.2-16.4,0-22.6s-16.4-6.2-22.6,0l-22.6,22.6c-6.2,6.2-6.2,16.4,0,22.6s16.4,6.2,22.6,0ZM131.6,357.8l-22.6,22.6c-6.2,6.2-6.2,16.4,0,22.6s16.4,6.2,22.6,0l22.6-22.6c6.2-6.3,6.2-16.4,0-22.6-6.2-6.3-16.4-6.3-22.6,0ZM112,256c0-8.8-7.2-16-16-16h-32c-8.8,0-16,7.2-16,16s7.2,16,16,16h32c8.8,0,16-7.2,16-16ZM448,240h-32c-8.8,0-16,7.2-16,16s7.2,16,16,16h32c8.8,0,16-7.2,16-16s-7.2-16-16-16ZM131.5,154.2c6.3,6.2,16.4,6.2,22.6,0,6.3-6.2,6.3-16.4,0-22.6l-22.6-22.6c-6.2-6.2-16.4-6.2-22.6,0-6.2,6.2-6.2,16.4,0,22.6l22.6,22.6ZM380.5,357.8c-6.3-6.2-16.4-6.2-22.6,0-6.3,6.2-6.3,16.4,0,22.6l22.6,22.6c6.2,6.2,16.4,6.2,22.6,0s6.2-16.4,0-22.6l-22.6-22.6Z"/>
</svg>